PathFileType	3	(X/Y/Z)	D:\minhoCalibration\240510\subject4_KPNP\preferred\preferred15.trc
DataRate	CameraRate	NumFrames	NumMarkers	Units	OrigDataRate	OrigDataStartFrame	OrigNumFrames
200.0	200.0	34	10	mm	200.0	487	86	
Frame#	Time	Left_Ankle_Outer1			Left_Ankle_Inner1			Left_Knee_Outer1			Left_Knee_Inner1			Left_Wrist1			Right_Wrist1			Right_Knee_Inner1			Right_Knee_Outer1			Right_Ankle_Inner1			Right_Ankle_Outer1			
		X1	Y1	Z1	X2	Y2	Z2	X3	Y3	Z3	X4	Y4	Z4	X5	Y5	Z5	X6	Y6	Z6	X7	Y7	Z7	X8	Y8	Z8	X9	Y9	Z9	X10	Y10	Z10	
487	2.425	-541.64911	1141.77	294.2229	-554.8139	1040.847	283.76529	-324.36557	1017.7278	757.95526	-348.57257	933.36127	738.26672	-462.9744	1191.3229	1118.1689	-570.90405	901.078	1327.5193	-376.16907	550.04059	1096.717	-399.07681	558.64294	1209.1843	-612.46338	123.38737	1131.9805	-601.48407	128.85692	1187.4569
488	2.43	-489.71017	1156.5557	269.34387	-505.96988	1056.0648	256.10971	-330.71887	1019.9438	753.55634	-359.25983	939.12512	730.06281	-462.7023	1193.6957	1117.8866	-571.00983	900.96625	1325.677	-379.20538	549.44464	1093.5444	-400.48563	558.01379	1205.6869	-614.10303	122.68796	1127.2257	-603.84009	128.02715	1182.812
489	2.435	-439.46552	1167.1367	252.33034	-460.0159	1067.9222	236.92395	-337.55371	1023.5939	747.93188	-370.39932	945.44391	721.78229	-463.64862	1195.5305	1117.5331	-570.60107	901.04132	1324.2507	-381.55316	548.46014	1090.0039	-401.71985	557.3999	1202.1021	-615.76062	121.87769	1122.8348	-606.48517	127.60811	1179.1073
490	2.44	-403.20291	1174.5547	246.67284	-433.3793	1079.024	228.91806	-342.43649	1030.7664	741.57294	-382.66766	952.40363	713.54669	-465.10864	1197.2397	1116.2313	-569.54871	901.2876	1322.745	-384.4487	547.20734	1086.6268	-402.90802	556.65417	1198.2797	-617.80035	120.91721	1119.4135	-608.6828	126.9763	1175.3534
491	2.445	-385.34103	1179.8174	245.06598	-420.41699	1083.8518	226.19754	-343.32269	1042.4862	736.16113	-394.53482	958.28394	705.85931	-466.77411	1198.7827	1113.9757	-567.93427	901.83118	1321.3273	-385.63721	545.79742	1082.2549	-404.14743	555.85199	1194.2394	-619.45978	119.85822	1116.1505	-610.79449	126.24949	1172.2444
492	2.45	-382.45505	1181.0641	241.46371	-418.9697	1085.0134	224.98282	-343.11139	1052.9237	731.19141	-400.30389	967.21832	698.13837	-469.75592	1199.8828	1111.4812	-565.69232	902.25372	1319.4487	-387.80994	544.37781	1078.3301	-405.48743	554.95709	1189.9147	-620.92163	118.63409	1113.3806	-612.53137	125.56966	1169.6626
493	2.455	-387.79822	1177.5284	237.75598	-421.02072	1079.1786	226.83151	-340.15479	1056.3621	728.65051	-400.72476	972.08435	697.57733	-473.07776	1200.7948	1107.9972	-563.15033	902.92346	1317.1813	-389.56781	542.88647	1073.9591	-406.82733	553.97906	1184.996	-622.14209	117.45773	1111.7833	-613.79193	124.77701	1167.7749
494	2.46	-397.2883	1171.973	234.74341	-421.40726	1070.6005	226.47194	-336.22372	1058.474	726.05389	-395.46881	971.86987	695.48779	-476.45508	1201.4172	1103.7699	-560.25317	903.27679	1314.6823	-390.78802	541.51611	1068.7505	-408.14114	553.01575	1179.4814	-623.12128	116.24096	1110.5061	-614.57861	124.18921	1166.5018
495	2.465	-407.56342	1164.2034	231.4257	-420.00348	1060.9169	225.72215	-334.02032	1060.4537	724.62811	-381.91556	975.70569	696.13123	-480.50397	1201.696	1099.0327	-557.24774	903.57574	1311.8497	-392.64114	539.8858	1063.6241	-409.20673	552.25891	1173.6212	-624.14008	115.32158	1109.9551	-614.39343	123.72694	1165.5193
496	2.47	-416.66183	1155.9476	227.74385	-418.1012	1051.7058	224.03572	-334.32288	1062.2778	725.21259	-372.73621	981.10034	696.9624	-485.00497	1201.7657	1093.9529	-554.22858	903.60498	1308.7815	-393.89981	538.79645	1056.9235	-409.83203	551.63257	1167.2415	-624.76874	114.53996	1109.8091	-614.63385	123.47296	1165.4185
497	2.475	-422.65051	1147.3141	223.48155	-418.9151	1042.5195	221.48764	-337.6488	1065.3596	726.84143	-365.92596	986.74805	699.43286	-490.40262	1201.9818	1088.8131	-551.26251	903.24786	1305.5459	-395.60727	538.05109	1050.0385	-410.03857	551.27759	1160.8313	-625.36908	113.67117	1109.9652	-614.60913	123.34432	1165.5358
498	2.48	-427.34988	1137.26	218.1113	-421.18793	1031.8257	220.01559	-342.80783	1070.8599	728.00806	-364.31412	992.79352	700.59045	-496.61365	1201.8804	1083.7433	-548.29095	902.55518	1302.037	-398.13281	537.47687	1043.3341	-409.85657	551.0769	1154.1041	-625.9184	113.18742	1110.3503	-614.15894	123.35543	1165.5917
499	2.485	-430.82703	1124.5184	212.13231	-422.80478	1019.8712	219.00935	-349.6835	1078.9581	727.47174	-363.4202	998.86591	700.77966	-503.34848	1202.0217	1079.1729	-545.48297	901.5412	1298.3823	-400.72455	537.07227	1036.0569	-409.3638	551.07855	1147.3352	-626.53235	112.81055	1110.822	-613.88245	123.58298	1165.8014
500	2.49	-434.46899	1110.4714	206.67603	-422.23795	1004.2762	218.11771	-357.99622	1087.9231	725.24463	-363.88535	1004.4337	700.00464	-509.87875	1202.1727	1074.8918	-542.68616	900.19507	1294.3201	-403.38889	537.07544	1028.9797	-408.69809	551.13422	1140.7708	-627.17834	112.6668	1110.9492	-613.15979	123.72359	1165.3226
501	2.495	-437.91248	1094.1858	202.05127	-418.83701	989.22052	216.82578	-367.14362	1096.8235	721.97778	-364.91824	1009.5208	698.53094	-516.54102	1202.0093	1070.5753	-540.16565	898.70764	1290.1125	-406.20502	537.11609	1022.1721	-407.87442	551.15607	1134.4447	-627.56702	112.85563	1110.7847	-612.81781	124.36345	1164.9504
502	2.5	-441.20401	1075.8821	197.79213	-414.26511	975.34491	216.80923	-381.16772	1103.651	716.44318	-366.78241	1013.7802	696.74396	-522.96246	1202.5276	1066.4681	-537.65192	897.0365	1285.5192	-409.54221	537.24298	1016.0988	-406.5791	551.04431	1128.3939	-627.81696	113.10312	1110.1139	-612.48163	125.09185	1164.0686
503	2.505	-444.42447	1056.6423	194.89751	-406.91382	959.91461	216.85059	-396.17429	1108.0437	709.92151	-369.58057	1016.7531	694.80499	-529.55945	1203.5287	1062.7664	-534.98041	895.3866	1280.6239	-412.33597	537.59723	1010.2927	-405.23465	550.8194	1122.4885	-627.76868	113.60731	1109.075	-612.13904	125.92938	1162.931
504	2.51	-446.45416	1036.4502	192.30795	-395.91226	947.45532	216.22803	-411.51169	1109.097	702.97174	-372.81934	1019.068	692.97736	-535.9986	1205.1421	1059.3909	-531.99719	893.73462	1275.4397	-414.59924	538.06763	1004.8843	-403.55698	550.55719	1116.7394	-627.97052	113.85655	1107.5996	-611.78766	126.68906	1161.4354
505	2.515	-447.4183	1016.1791	190.01067	-386.72202	935.54443	216.12515	-425.36469	1107.5516	696.62531	-377.07379	1020.4363	690.88336	-542.51038	1206.6345	1056.6376	-528.66272	892.20215	1269.769	-416.92511	538.56195	1000.3394	-401.90503	550.55603	1111.5715	-628.29932	114.45433	1106.6744	-611.28729	127.577	1159.8038
506	2.52	-447.88214	996.14026	188.26495	-380.45639	923.02881	216.51997	-436.50073	1104.609	690.99768	-382.15015	1020.4214	688.23004	-549.58807	1207.6437	1054.8845	-525.05841	890.90594	1263.4652	-418.73489	539.19019	996.30872	-400.42999	550.70392	1106.7444	-628.80011	114.70169	1105.4244	-611.0744	128.31447	1158.4586
507	2.525	-449.1481	976.14142	187.20302	-376.72089	910.03925	217.13527	-446.66037	1100.5427	685.87952	-387.99139	1018.9912	685.02148	-555.77277	1208.1527	1053.0386	-521.27783	889.90088	1258.1459	-420.09265	539.61346	992.82288	-398.87683	550.96698	1102.915	-629.09973	115.07463	1104.4313	-611.02008	128.79967	1157.3822
508	2.53	-449.13284	956.10498	186.60176	-373.59277	895.7818	218.27655	-455.10184	1095.5282	680.95612	-394.36365	1016.078	681.87256	-561.89618	1207.8778	1051.3191	-517.04797	889.17657	1253.0148	-421.08423	540.2829	989.94067	-397.76859	551.24847	1099.4785	-629.28516	115.31783	1103.9335	-610.46008	129.145	1156.4558
509	2.535	-449.38611	936.20123	186.65567	-371.20245	881.34192	219.73262	-462.72116	1089.7203	676.01605	-400.47406	1012.3924	679.12811	-567.83618	1207.1798	1049.6941	-512.72675	888.78546	1248.8121	-421.48907	540.28827	987.31573	-396.79016	551.56891	1096.6975	-629.33844	115.62367	1104.0472	-609.76746	129.40427	1156.1592
510	2.54	-450.1683	915.6886	187.38672	-369.89319	865.84418	221.85414	-469.50192	1083.9413	671.03339	-406.43985	1008.4589	676.7594	-573.60858	1205.7183	1048.1481	-508.29852	888.61426	1245.3336	-421.59439	540.04675	985.21594	-395.9563	551.6864	1094.262	-628.93719	115.5927	1104.38	-609.19147	129.88176	1156.7555
511	2.545	-451.46292	894.11938	189.20647	-369.17755	849.34387	224.78453	-476.47495	1077.6111	665.86359	-412.66052	1004.2312	674.82001	-579.32996	1203.9978	1046.3197	-503.86786	888.86475	1242.3915	-420.99866	539.68195	983.3595	-394.99469	551.84851	1092.5177	-629.23077	115.7878	1106.0135	-608.30023	130.00763	1157.7502
512	2.55	-453.25308	871.79236	192.10414	-368.74725	832.59558	228.29279	-483.59808	1071.1892	660.67511	-418.25159	999.96625	673.05145	-585.04639	1201.8091	1044.4636	-499.46155	889.4223	1239.6887	-420.38821	538.92041	981.12433	-394.50708	551.57092	1090.4216	-629.24109	115.78767	1107.9186	-607.2926	130.06042	1159.2988
513	2.555	-455.34885	849.08679	195.67412	-368.34189	816.51666	232.23642	-492.20193	1064.1381	656.04791	-424.0694	995.37042	671.77716	-590.36963	1199.0696	1042.665	-495.26212	890.3205	1237.4449	-419.8432	537.802	979.56165	-393.75027	551.11621	1088.8087	-629.11578	115.74046	1110.1838	-605.98358	129.92172	1161.0438
514	2.56	-458.24371	826.7655	200.29243	-364.93387	801.38593	241.21936	-501.45728	1056.8234	652.32825	-429.2052	991.03156	670.55273	-595.08844	1195.8373	1040.8987	-491.29541	891.3584	1235.469	-419.02042	536.56488	978.30505	-393.01071	550.45361	1087.3027	-628.68866	116.06039	1112.8462	-604.75885	130.22368	1163.4971
515	2.565	-460.67062	802.86963	205.72867	-366.69427	785.32751	243.29518	-510.16254	1049.1444	648.86127	-434.22064	986.45001	669.30847	-599.39276	1192.2621	1039.3306	-487.56726	892.47913	1233.5299	-418.04785	534.62158	976.92694	-392.1261	549.55786	1085.8689	-628.50873	116.11561	1115.8424	-603.30682	130.29539	1165.9331
516	2.57	-464.14719	780.42059	211.74068	-368.65775	769.29645	247.2867	-519.40997	1040.8831	646.70642	-439.28024	982.53741	667.79462	-603.51123	1188.5547	1037.8577	-484.17874	893.6449	1232.1362	-417.23135	532.83502	975.80811	-391.04019	548.58649	1084.4589	-628.11951	115.918	1118.6429	-601.9425	130.36205	1168.5842
517	2.575	-468.13989	757.22357	218.53282	-371.40567	752.89502	251.5817	-527.04376	1031.5802	644.76477	-444.36676	979.04315	665.93414	-607.30707	1184.9147	1036.4384	-481.15927	894.73364	1230.8958	-415.6424	530.85114	974.30182	-389.7356	547.38831	1083.0547	-627.56262	115.82273	1121.5918	-600.33765	129.97398	1170.8284
518	2.58	-473.50082	734.37885	226.15863	-375.28116	736.09271	256.08508	-534.73779	1022.107	643.36469	-448.85419	975.9361	663.70001	-610.508	1180.9827	1034.9172	-478.48828	895.76532	1229.9956	-415.5383	528.9184	973.35358	-388.13773	546.17059	1081.5469	-626.62097	115.7492	1124.4965	-598.85858	129.89647	1173.2461
519	2.585	-478.82889	711.70251	233.37653	-380.25229	718.8313	260.31671	-541.30414	1011.3198	641.82263	-452.98776	972.62592	661.20886	-613.5943	1177.1272	1033.1698	-476.31165	896.50983	1229.2126	-414.8833	526.94324	972.04974	-386.4422	544.83014	1080.0612	-626.22455	115.46657	1127.3184	-597.32477	129.67442	1175.4139
520	2.59	-485.70895	690.6748	241.418	-386.53763	700.85822	264.87738	-546.80609	1000.6718	641.18658	-456.54828	969.05597	658.82324	-616.67505	1173.1581	1031.1836	-474.52872	897.02704	1228.7861	-414.18674	525.35901	970.84015	-384.54837	543.44562	1078.5023	-625.05927	115.22938	1130.0139	-595.93646	129.36839	1177.408
